<svg xmlns="http://www.w3.org/2000/svg" viewBox="0 0 1200 840" width="1200" height="840">
  <style>
    text { font-family: 'Helvetica Neue', Helvetica, Arial, 'PingFang SC', 'Microsoft YaHei', 'Microsoft JhengHei', 'SimHei', sans-serif; }
  </style>
  <defs>
    <marker id="arrow-blue" markerWidth="10" markerHeight="7" refX="9" refY="3.5" orient="auto">
      <polygon points="0 0, 10 3.5, 0 7" fill="#2563eb"/>
    </marker>
    <marker id="arrow-green" markerWidth="10" markerHeight="7" refX="9" refY="3.5" orient="auto">
      <polygon points="0 0, 10 3.5, 0 7" fill="#16a34a"/>
    </marker>
    <marker id="arrow-purple" markerWidth="10" markerHeight="7" refX="9" refY="3.5" orient="auto">
      <polygon points="0 0, 10 3.5, 0 7" fill="#9333ea"/>
    </marker>
  </defs>
  <rect width="1200" height="840" fill="#ffffff"/>
  <text x="600" y="34" text-anchor="middle" font-size="18" font-weight="600" fill="#111827">随手报 ReportNow · 系统功能架构图</text>
  <text x="600" y="54" text-anchor="middle" font-size="12" fill="#6b7280">覆盖 模板设计 → 任务下发 → 填报审批 → 签收汇总 → 智能分析 的报表全生命周期管理平台</text>
  <rect x="40" y="72" width="1120" height="78" rx="10" fill="#f8fafc" stroke="#cbd5e1" stroke-width="1" stroke-dasharray="6,4"/>
  <text x="56" y="92" font-size="12.5" font-weight="600" fill="#475569">用户层 · 角色</text>
  <rect x="40" y="190" width="1120" height="234" rx="10" fill="#f8fafc" stroke="#cbd5e1" stroke-width="1" stroke-dasharray="6,4"/>
  <text x="56" y="210" font-size="12.5" font-weight="600" fill="#475569">前端功能层 · React 18 SPA（TypeScript + Vite + Tailwind + Recharts）</text>
  <rect x="40" y="468" width="1120" height="194" rx="10" fill="#f8fafc" stroke="#cbd5e1" stroke-width="1" stroke-dasharray="6,4"/>
  <text x="56" y="488" font-size="12.5" font-weight="600" fill="#475569">后端服务层 · Spring Boot 3 + MyBatis（REST API · JWT 认证鉴权 · 部门数据隔离）</text>
  <line x1="600" y1="150" x2="600" y2="190" stroke="#2563eb" stroke-width="2" marker-end="url(#arrow-blue)"/>
  <text x="612" y="174" font-size="12" fill="#2563eb">HTTPS</text>
  <line x1="600" y1="424" x2="600" y2="468" stroke="#2563eb" stroke-width="2.5" marker-end="url(#arrow-blue)"/>
  <text x="612" y="450" font-size="12" fill="#2563eb">REST API · JWT Bearer</text>
  <line x1="400" y1="662" x2="400" y2="706" stroke="#16a34a" stroke-width="2" marker-end="url(#arrow-green)"/>
  <text x="388" y="688" text-anchor="end" font-size="12" fill="#16a34a">MyBatis · JDBC</text>
  <path d="M 508 646 V 684 H 800 V 706" stroke="#9333ea" stroke-width="1.5" fill="none" stroke-dasharray="5,3" marker-end="url(#arrow-purple)"/>
  <text x="654" y="676" text-anchor="middle" font-size="12" fill="#9333ea">OpenAI 兼容 API</text>
  <rect x="64" y="102" width="250" height="36" rx="8" fill="#eff6ff" stroke="#bfdbfe" stroke-width="1.5"/>
  <text x="189" y="125" text-anchor="middle" font-size="13" font-weight="600" fill="#1e40af">分公司用户（填报）</text>
  <rect x="338" y="102" width="250" height="36" rx="8" fill="#eff6ff" stroke="#bfdbfe" stroke-width="1.5"/>
  <text x="463" y="125" text-anchor="middle" font-size="13" font-weight="600" fill="#1e40af">部门报表管理员</text>
  <rect x="612" y="102" width="250" height="36" rx="8" fill="#eff6ff" stroke="#bfdbfe" stroke-width="1.5"/>
  <text x="737" y="125" text-anchor="middle" font-size="13" font-weight="600" fill="#1e40af">数智化转型办公室</text>
  <rect x="886" y="102" width="250" height="36" rx="8" fill="#eff6ff" stroke="#bfdbfe" stroke-width="1.5"/>
  <text x="1011" y="125" text-anchor="middle" font-size="13" font-weight="600" fill="#1e40af">超级管理员</text>
  <rect x="60" y="222" width="200" height="86" rx="8" fill="#f0fdf4" stroke="#bbf7d0" stroke-width="1.5"/>
  <text x="160" y="248" text-anchor="middle" font-size="13" font-weight="600" fill="#111827">工作台</text>
  <text x="160" y="270" text-anchor="middle" font-size="11" fill="#6b7280">待办任务 · 退回提醒</text>
  <text x="160" y="288" text-anchor="middle" font-size="11" fill="#6b7280">填报进度统计总览</text>
  <rect x="280" y="222" width="200" height="86" rx="8" fill="#f0fdf4" stroke="#bbf7d0" stroke-width="1.5"/>
  <text x="380" y="248" text-anchor="middle" font-size="13" font-weight="600" fill="#111827">模板管理</text>
  <text x="380" y="270" text-anchor="middle" font-size="11" fill="#6b7280">字段设计 · Excel导入</text>
  <text x="380" y="288" text-anchor="middle" font-size="11" fill="#6b7280">提交审批 · 周期计划</text>
  <rect x="500" y="222" width="200" height="86" rx="8" fill="#f0fdf4" stroke="#bbf7d0" stroke-width="1.5"/>
  <text x="600" y="248" text-anchor="middle" font-size="13" font-weight="600" fill="#111827">任务下发</text>
  <text x="600" y="270" text-anchor="middle" font-size="11" fill="#6b7280">周期任务 · 一次性</text>
  <text x="600" y="288" text-anchor="middle" font-size="11" fill="#6b7280">自动调度 · 强制收回</text>
  <rect x="720" y="222" width="200" height="86" rx="8" fill="#f0fdf4" stroke="#bbf7d0" stroke-width="1.5"/>
  <text x="820" y="248" text-anchor="middle" font-size="13" font-weight="600" fill="#111827">报表填报</text>
  <text x="820" y="270" text-anchor="middle" font-size="11" fill="#6b7280">汇总区 · 明细表</text>
  <text x="820" y="288" text-anchor="middle" font-size="11" fill="#6b7280">交叉表 · 全屏展示</text>
  <rect x="940" y="222" width="200" height="86" rx="8" fill="#f0fdf4" stroke="#bbf7d0" stroke-width="1.5"/>
  <text x="1040" y="248" text-anchor="middle" font-size="13" font-weight="600" fill="#111827">审批中心</text>
  <text x="1040" y="270" text-anchor="middle" font-size="11" fill="#6b7280">填报三级审批</text>
  <text x="1040" y="288" text-anchor="middle" font-size="11" fill="#6b7280">模板发布审批</text>
  <rect x="60" y="322" width="200" height="86" rx="8" fill="#f0fdf4" stroke="#bbf7d0" stroke-width="1.5"/>
  <text x="160" y="348" text-anchor="middle" font-size="13" font-weight="600" fill="#111827">签收管理</text>
  <text x="160" y="370" text-anchor="middle" font-size="11" fill="#6b7280">报表签收 · 退回</text>
  <text x="160" y="388" text-anchor="middle" font-size="11" fill="#6b7280">签收进度跟踪</text>
  <rect x="280" y="322" width="200" height="86" rx="8" fill="#f0fdf4" stroke="#bbf7d0" stroke-width="1.5"/>
  <text x="380" y="348" text-anchor="middle" font-size="13" font-weight="600" fill="#111827">汇总报表</text>
  <text x="380" y="370" text-anchor="middle" font-size="11" fill="#6b7280">多机构数据对比</text>
  <text x="380" y="388" text-anchor="middle" font-size="11" fill="#6b7280">Excel 导出</text>
  <rect x="500" y="322" width="200" height="86" rx="8" fill="#f0fdf4" stroke="#bbf7d0" stroke-width="1.5"/>
  <text x="600" y="348" text-anchor="middle" font-size="13" font-weight="600" fill="#111827">智能问数</text>
  <text x="600" y="370" text-anchor="middle" font-size="11" fill="#6b7280">自然语言查询</text>
  <text x="600" y="388" text-anchor="middle" font-size="11" fill="#6b7280">图表生成 · 结果下载</text>
  <rect x="720" y="322" width="200" height="86" rx="8" fill="#f0fdf4" stroke="#bbf7d0" stroke-width="1.5"/>
  <text x="820" y="348" text-anchor="middle" font-size="13" font-weight="600" fill="#111827">机构与用户管理</text>
  <text x="820" y="370" text-anchor="middle" font-size="11" fill="#6b7280">机构树维护</text>
  <text x="820" y="388" text-anchor="middle" font-size="11" fill="#6b7280">用户与角色分配</text>
  <rect x="940" y="322" width="200" height="86" rx="8" fill="#f0fdf4" stroke="#bbf7d0" stroke-width="1.5"/>
  <text x="1040" y="348" text-anchor="middle" font-size="13" font-weight="600" fill="#111827">全局只读视图</text>
  <text x="1040" y="370" text-anchor="middle" font-size="11" fill="#6b7280">超管全域数据</text>
  <text x="1040" y="388" text-anchor="middle" font-size="11" fill="#6b7280">只读查阅</text>
  <rect x="60" y="502" width="165" height="64" rx="8" fill="#faf5ff" stroke="#e9d5ff" stroke-width="1.5"/>
  <text x="142" y="528" text-anchor="middle" font-size="13" font-weight="600" fill="#111827">认证服务</text>
  <text x="142" y="548" text-anchor="middle" font-size="11" fill="#6b7280">AuthController</text>
  <rect x="243" y="502" width="165" height="64" rx="8" fill="#faf5ff" stroke="#e9d5ff" stroke-width="1.5"/>
  <text x="325" y="528" text-anchor="middle" font-size="13" font-weight="600" fill="#111827">模板服务</text>
  <text x="325" y="548" text-anchor="middle" font-size="11" fill="#6b7280">TemplateController</text>
  <rect x="426" y="502" width="165" height="64" rx="8" fill="#faf5ff" stroke="#e9d5ff" stroke-width="1.5"/>
  <text x="508" y="528" text-anchor="middle" font-size="13" font-weight="600" fill="#111827">任务服务</text>
  <text x="508" y="548" text-anchor="middle" font-size="11" fill="#6b7280">AssignmentController</text>
  <rect x="609" y="502" width="165" height="64" rx="8" fill="#faf5ff" stroke="#e9d5ff" stroke-width="1.5"/>
  <text x="691" y="528" text-anchor="middle" font-size="13" font-weight="600" fill="#111827">填报服务</text>
  <text x="691" y="548" text-anchor="middle" font-size="11" fill="#6b7280">SubmissionController</text>
  <rect x="792" y="502" width="165" height="64" rx="8" fill="#faf5ff" stroke="#e9d5ff" stroke-width="1.5"/>
  <text x="874" y="528" text-anchor="middle" font-size="13" font-weight="600" fill="#111827">审批服务</text>
  <text x="874" y="548" text-anchor="middle" font-size="11" fill="#6b7280">ApprovalController</text>
  <rect x="975" y="502" width="165" height="64" rx="8" fill="#faf5ff" stroke="#e9d5ff" stroke-width="1.5"/>
  <text x="1057" y="528" text-anchor="middle" font-size="13" font-weight="600" fill="#111827">签收服务</text>
  <text x="1057" y="548" text-anchor="middle" font-size="11" fill="#6b7280">ReceiptController</text>
  <rect x="60" y="582" width="165" height="64" rx="8" fill="#faf5ff" stroke="#e9d5ff" stroke-width="1.5"/>
  <text x="142" y="608" text-anchor="middle" font-size="13" font-weight="600" fill="#111827">数据导入</text>
  <text x="142" y="628" text-anchor="middle" font-size="11" fill="#6b7280">DataImportController</text>
  <rect x="243" y="582" width="165" height="64" rx="8" fill="#faf5ff" stroke="#e9d5ff" stroke-width="1.5"/>
  <text x="325" y="608" text-anchor="middle" font-size="13" font-weight="600" fill="#111827">汇总服务</text>
  <text x="325" y="628" text-anchor="middle" font-size="11" fill="#6b7280">AggregationController</text>
  <rect x="426" y="582" width="165" height="64" rx="8" fill="#faf5ff" stroke="#e9d5ff" stroke-width="1.5"/>
  <text x="508" y="608" text-anchor="middle" font-size="13" font-weight="600" fill="#111827">智能问数</text>
  <text x="508" y="628" text-anchor="middle" font-size="11" fill="#6b7280">AiQueryController</text>
  <rect x="609" y="582" width="165" height="64" rx="8" fill="#faf5ff" stroke="#e9d5ff" stroke-width="1.5"/>
  <text x="691" y="608" text-anchor="middle" font-size="13" font-weight="600" fill="#111827">机构管理</text>
  <text x="691" y="628" text-anchor="middle" font-size="11" fill="#6b7280">CompanyController</text>
  <rect x="792" y="582" width="165" height="64" rx="8" fill="#faf5ff" stroke="#e9d5ff" stroke-width="1.5"/>
  <text x="874" y="608" text-anchor="middle" font-size="13" font-weight="600" fill="#111827">用户管理</text>
  <text x="874" y="628" text-anchor="middle" font-size="11" fill="#6b7280">UserController</text>
  <rect x="975" y="582" width="165" height="64" rx="8" fill="#faf5ff" stroke="#e9d5ff" stroke-width="1.5"/>
  <text x="1057" y="608" text-anchor="middle" font-size="13" font-weight="600" fill="#111827">提醒服务</text>
  <text x="1057" y="628" text-anchor="middle" font-size="11" fill="#6b7280">ReminderController</text>
  <rect x="250" y="706" width="300" height="48" rx="8" fill="#f0fdfa" stroke="#99f6e4" stroke-width="1.5"/>
  <text x="400" y="728" text-anchor="middle" font-size="13" font-weight="600" fill="#0f766e">MySQL 8.0 数据库</text>
  <text x="400" y="746" text-anchor="middle" font-size="11" fill="#6b7280">18 张表 · 模板 / 任务 / 填报 / 审批 / 机构</text>
  <rect x="650" y="706" width="300" height="48" rx="8" fill="#fff7ed" stroke="#fed7aa" stroke-width="1.5"/>
  <text x="800" y="728" text-anchor="middle" font-size="13" font-weight="600" fill="#9a3412">AI 大模型服务</text>
  <text x="800" y="746" text-anchor="middle" font-size="11" fill="#6b7280">OpenAI 兼容 API（智能问数）</text>
  <line x1="40" y1="806" x2="76" y2="806" stroke="#2563eb" stroke-width="2" marker-end="url(#arrow-blue)"/>
  <text x="84" y="810" font-size="12" fill="#6b7280">HTTPS / REST API 主链路</text>
  <line x1="300" y1="806" x2="336" y2="806" stroke="#16a34a" stroke-width="2" marker-end="url(#arrow-green)"/>
  <text x="344" y="810" font-size="12" fill="#6b7280">数据持久化（MyBatis）</text>
  <line x1="580" y1="806" x2="616" y2="806" stroke="#9333ea" stroke-width="1.5" stroke-dasharray="5,3" marker-end="url(#arrow-purple)"/>
  <text x="624" y="810" font-size="12" fill="#6b7280">外部 AI 服务调用</text>
</svg>
